<?xml version="1.0" standalone="no"?>
<!DOCTYPE svg PUBLIC "-//W3C//DTD SVG 20010904//EN"
 "http://www.w3.org/TR/2001/REC-SVG-20010904/DTD/svg10.dtd">
<svg version="1.0" xmlns="http://www.w3.org/2000/svg"
 width="120.000000pt" height="120.000000pt" viewBox="0 0 120.000000 120.000000"
 preserveAspectRatio="xMidYMid meet">
<metadata>
Created by potrace 1.10, written by Peter Selinger 2001-2011
</metadata>
<g transform="translate(0.000000,120.000000) scale(0.100000,-0.100000)"
 stroke="#ffffff">
<path fill="#3D8116" d="M485 1055 c-64 -47 -137 -100 -161 -118 -23 -18 -61 -45 -84 -61 -38
-28 -51 -58 -31 -70 5 -4 99 59 208 139 109 80 203 145 208 145 9 0 435 -306
458 -329 9 -9 12 -555 2 -571 -4 -6 -99 -10 -267 -10 -245 0 -264 -1 -305 -21
-24 -11 -43 -23 -43 -25 0 -2 141 -3 314 -1 293 2 315 3 335 21 20 19 21 27
21 321 0 300 0 302 -22 322 -20 17 -177 132 -397 290 -40 29 -83 53 -96 53
-13 0 -73 -37 -140 -85z"/>
<path fill="#E6503A" d="M75 1061 c-3 -6 1 -57 9 -113 8 -57 22 -158 32 -226 l17 -123 -41
-35 c-51 -44 -66 -87 -61 -186 4 -62 11 -88 39 -144 21 -41 45 -74 60 -81 56
-29 261 -4 349 42 43 22 41 55 -3 86 -52 37 -94 95 -136 185 -40 86 -72 120
-124 129 l-32 6 -29 207 c-15 114 -31 218 -35 232 -7 26 -34 39 -45 21z m174
-535 c12 -12 37 -55 56 -94 l34 -72 -42 -11 c-47 -13 -202 -17 -214 -6 -12 13
-8 110 6 145 26 62 117 84 160 38z m160 -250 l44 -44 -54 -17 c-30 -10 -98
-20 -151 -22 l-97 -5 -30 48 c-17 26 -31 50 -31 53 0 4 37 4 83 3 55 -3 99 1
132 11 28 9 52 16 55 16 3 1 25 -19 49 -43z"/>
<path fill="#ffffff" d="M640 790 c0 -5 -7 -10 -15 -10 -12 0 -12 -3 3 -18 9 -10 19 -14 20
-10 2 4 10 8 18 8 12 0 12 4 2 20 -14 21 -28 27 -28 10z"/>
<path fill="#ffffff" d="M865 609 c-26 -21 -28 -21 -55 -6 -40 24 -45 21 -22 -15 l21 -32 -20
-33 c-24 -38 -14 -42 25 -12 l26 20 31 -21 c39 -28 47 -20 20 19 -21 29 -21
32 -6 62 21 40 15 45 -20 18z"/>
<path fill="#ffffff" d="M623 378 c-7 -15 -22 -28 -35 -31 l-23 -4 23 -8 c13 -4 25 -20 31
-39 l8 -31 8 27 c4 17 17 30 33 36 25 8 26 9 6 16 -11 3 -24 18 -30 33 l-9 27
-12 -26z"/>
</g>
</svg>
